<?xml version="1.0" standalone="no"?>
<!DOCTYPE svg PUBLIC "-//W3C//DTD SVG 20010904//EN"
 "http://www.w3.org/TR/2001/REC-SVG-20010904/DTD/svg10.dtd">
<svg version="1.0" xmlns="http://www.w3.org/2000/svg"
 width="600.000000pt" height="250.000000pt" viewBox="0 0 600.000000 250.000000"
 preserveAspectRatio="xMidYMid meet">

<g transform="translate(0.000000,250.000000) scale(0.100000,-0.100000)"
fill="#000000" stroke="none">
<path d="M947 1708 c-106 -216 -285 -583 -397 -815 l-205 -422 -107 -1 -108 0
0 -25 0 -25 1045 0 1045 0 0 25 0 25 -107 0 -108 1 -395 812 -396 812 -37 3
-37 3 -193 -393z m203 -163 l0 -465 -155 0 -155 0 0 -305 0 -305 -224 0 -225
0 163 333 c89 182 258 529 376 770 117 240 215 437 217 437 1 0 3 -209 3 -465z
m430 -300 c174 -357 331 -678 349 -713 l31 -62 -225 0 -225 0 0 305 0 305
-155 0 -155 0 0 468 1 467 31 -60 c17 -33 174 -352 348 -710z m-493 -297 c-24
-46 -77 -145 -116 -220 -40 -76 -75 -138 -77 -138 -2 0 -4 99 -4 220 l0 220
121 0 121 0 -45 -82z m373 -150 c0 -266 9 -260 -95 -63 -37 72 -88 167 -112
213 l-45 82 126 0 126 0 0 -232z m-147 -57 c75 -142 137 -261 137 -265 0 -3
-126 -6 -280 -6 -154 0 -280 3 -280 6 0 11 274 524 280 524 3 0 67 -116 143
-259z"/>
<path d="M3476 2064 c-4 -9 -5 -17 -4 -18 2 -1 21 -10 43 -21 l40 -20 0 -180
0 -180 -100 -22 c-55 -13 -130 -26 -167 -29 l-68 -7 0 71 0 71 118 3 c113 3
117 4 120 26 2 12 -2 22 -9 22 -9 0 -10 18 -5 68 3 37 9 76 12 87 5 19 0 20
-179 20 l-185 0 14 -27 c8 -15 17 -29 21 -31 5 -3 57 0 117 5 59 5 111 6 115
1 4 -4 5 -34 3 -66 l-4 -58 -131 2 c-78 1 -133 -3 -135 -9 -1 -5 9 -17 23 -26
23 -15 25 -22 25 -101 0 -79 2 -86 25 -101 19 -12 36 -14 77 -9 53 7 267 57
301 70 15 6 17 1 17 -42 0 -28 3 -91 6 -141 7 -88 8 -92 30 -92 13 0 28 9 34
21 8 13 14 140 17 358 l6 337 -54 11 c-117 25 -116 25 -123 7z"/>
<path d="M2595 2059 c-4 -6 1 -16 11 -24 17 -12 15 -14 -24 -24 -24 -7 -57
-27 -77 -47 -31 -30 -35 -41 -35 -84 0 -43 5 -54 33 -83 78 -77 221 -76 299 3
44 43 50 87 19 133 -22 34 -45 51 -92 66 -29 9 -36 16 -32 31 4 14 -1 20 -21
25 -14 3 -37 7 -50 10 -14 3 -28 0 -31 -6z m119 -110 c94 -74 7 -193 -108
-149 -15 5 -34 25 -43 44 -14 29 -14 39 -3 66 24 58 104 78 154 39z"/>
<path d="M4216 2055 c-3 -9 -6 -18 -6 -19 0 -2 18 -8 41 -15 22 -7 42 -17 44
-24 2 -7 5 -85 7 -174 l3 -163 -31 6 c-47 9 -52 -19 -8 -45 46 -27 47 -61 2
-61 -18 0 -64 -3 -102 -7 l-69 -6 6 40 7 40 -66 7 c-62 6 -84 3 -84 -12 0 -4
13 -13 30 -19 l29 -11 3 -124 3 -123 30 3 c17 2 34 10 38 18 6 11 32 14 107
14 85 0 100 -2 100 -16 0 -12 6 -15 23 -10 12 3 27 6 34 6 13 0 22 63 25 198
3 89 2 92 -19 92 -12 0 -25 5 -28 10 -3 6 3 10 14 10 26 0 29 21 34 221 l4
157 -41 5 c-23 3 -59 9 -82 13 -33 5 -42 3 -48 -11z m84 -585 l0 -40 -54 0
c-29 0 -74 -3 -100 -6 l-46 -7 0 40 c0 22 3 43 7 46 3 4 48 7 100 7 l93 0 0
-40z"/>
<path d="M4110 1998 c-30 -5 -103 -8 -162 -5 -60 2 -108 2 -108 -1 0 -2 8 -17
17 -33 17 -28 18 -28 92 -23 42 3 88 7 103 9 15 2 29 1 32 -4 9 -14 -74 -129
-130 -180 -31 -28 -76 -63 -100 -77 -24 -14 -44 -30 -44 -34 0 -35 79 0 185
80 75 57 64 59 152 -22 28 -26 56 -48 61 -48 5 0 19 11 31 24 l23 24 -29 18
c-74 45 -133 85 -133 89 0 3 15 26 34 52 54 77 69 112 55 129 -6 8 -14 13 -18
13 -3 -1 -31 -6 -61 -11z"/>
<path d="M2885 1689 c-95 -10 -522 -14 -562 -5 l-32 7 15 -38 15 -39 67 8 c37
4 106 7 155 7 l87 1 0 -145 0 -145 29 0 c16 0 31 6 34 14 3 8 9 73 13 145 l7
131 143 0 144 0 0 35 c0 39 7 38 -115 24z"/>
<path d="M3330 1177 c0 -7 5 -18 11 -24 8 -8 0 -14 -28 -23 -110 -37 -146
-122 -82 -195 l31 -35 -25 0 c-32 0 -41 -31 -12 -45 11 -6 21 -19 23 -29 4
-18 -2 -19 -111 -13 l-115 5 11 -35 11 -36 86 7 c47 3 203 9 348 13 l262 6 0
32 0 32 -47 -8 c-27 -4 -72 -8 -101 -8 -52 -1 -52 -1 -46 27 3 15 8 33 10 40
2 8 -5 16 -16 19 -19 5 -19 6 5 35 51 61 19 139 -71 174 -35 13 -44 21 -41 35
4 14 -5 20 -45 28 -61 14 -58 14 -58 -2z m109 -102 c55 -28 60 -104 9 -139
-42 -30 -136 -12 -152 29 -33 87 56 156 143 110z m29 -238 c-3 -20 -10 -22
-70 -25 -60 -3 -68 -1 -68 15 0 31 14 42 60 45 58 4 82 -7 78 -35z"/>
<path d="M4956 1174 c-4 -9 -5 -17 -4 -18 2 -1 21 -10 43 -21 35 -17 40 -25
43 -57 l3 -38 -55 0 c-51 0 -56 2 -56 23 l0 22 -187 -2 c-161 -2 -188 -4 -191
-17 -2 -9 3 -16 12 -16 25 0 33 -28 40 -139 10 -153 13 -162 45 -154 14 3 30
12 34 20 6 10 36 13 117 13 101 0 110 2 110 19 0 24 19 31 80 31 l49 0 3 -62
c3 -62 3 -63 32 -63 40 0 44 18 48 252 l3 192 -65 11 c-36 7 -72 14 -81 16 -9
3 -19 -3 -23 -12z m-118 -234 c-3 -50 -7 -92 -9 -94 -2 -2 -33 -5 -69 -7 l-65
-4 -9 83 c-4 45 -5 89 -2 97 4 11 23 15 82 15 l77 0 -5 -90z m202 0 l0 -50
-66 0 -67 0 6 41 c7 50 18 59 80 59 l47 0 0 -50z"/>
<path d="M2706 1164 c-8 -20 -11 -17 39 -35 l40 -15 5 -334 c3 -184 7 -336 8
-338 1 -2 14 -2 29 0 36 4 42 35 42 236 l1 152 69 0 c63 0 69 2 75 23 3 12 6
26 6 30 0 8 -55 3 -124 -10 l-28 -5 3 145 4 145 -73 11 c-92 14 -89 14 -96 -5z"/>
<path d="M4216 1164 c-8 -20 -11 -17 39 -35 40 -15 40 -15 43 -72 l3 -57 -91
0 c-49 0 -90 -2 -90 -5 0 -2 5 -15 12 -29 10 -24 14 -25 67 -20 31 3 66 7 79
10 21 4 22 1 22 -48 0 -29 3 -70 6 -90 6 -33 10 -38 34 -38 17 0 31 7 35 18 4
9 9 94 12 188 l6 171 -77 12 c-97 14 -93 14 -100 -5z"/>
<path d="M5686 1164 c-8 -20 -11 -17 39 -35 l40 -15 3 -97 3 -97 -96 0 -96 0
16 -30 c16 -32 11 -31 143 -15 l32 4 0 -128 c0 -70 3 -169 6 -219 7 -88 8 -92
30 -92 13 0 28 9 34 21 8 13 14 140 17 358 l6 338 -77 12 c-97 14 -93 14 -100
-5z"/>
<path d="M3974 1118 c-4 -6 -3 -13 3 -15 6 -2 18 -10 28 -17 17 -12 17 -15 -2
-57 -28 -62 -95 -143 -159 -192 -50 -39 -68 -67 -44 -67 16 0 108 61 170 113
l55 46 67 -66 67 -66 30 25 29 25 -84 58 -85 57 17 26 c42 64 56 94 48 101
-11 10 -102 41 -120 41 -7 0 -16 -5 -20 -12z"/>
<path d="M2476 1081 c-3 -5 5 -16 19 -25 32 -21 31 -37 -5 -114 -39 -82 -79
-140 -144 -207 -40 -41 -51 -57 -42 -65 15 -12 123 74 182 144 21 25 41 46 45
46 4 0 40 -41 80 -90 l73 -91 30 31 c21 21 27 33 19 38 -29 18 -173 146 -173
154 0 5 16 40 36 79 19 39 34 72 32 73 -6 5 -124 36 -136 36 -6 0 -13 -4 -16
-9z"/>
<path d="M5446 1082 c-3 -5 6 -19 19 -30 31 -27 31 -29 1 -95 -34 -78 -90
-162 -149 -224 -34 -36 -47 -57 -40 -64 13 -13 88 46 162 126 l53 59 29 -34
c16 -19 51 -61 76 -92 l48 -57 27 26 c16 15 28 29 28 33 0 3 -21 23 -47 43
-27 21 -68 55 -92 76 l-44 39 36 70 c21 39 37 76 37 84 0 9 -22 21 -60 31 -68
19 -77 20 -84 9z"/>
<path d="M3970 762 c0 -2 7 -17 16 -34 16 -30 16 -30 82 -24 37 3 102 9 145
12 l77 7 0 -42 0 -41 -159 0 c-157 0 -201 -9 -147 -30 25 -9 32 -27 38 -105
l3 -30 191 -3 191 -2 7 31 c3 18 5 33 4 34 -2 2 -32 -1 -68 -5 -36 -5 -108
-10 -160 -12 l-95 -3 0 35 0 35 141 3 142 3 5 25 c2 13 0 27 -5 30 -9 6 -3 78
8 108 3 8 -55 11 -206 11 -115 0 -210 -1 -210 -3z"/>
<path d="M4880 758 c0 -8 5 -19 10 -24 8 -8 -3 -16 -34 -28 -94 -36 -121 -134
-55 -202 72 -75 214 -69 277 11 48 61 9 158 -74 185 -27 9 -33 16 -29 30 7 22
2 26 -52 35 -33 5 -43 4 -43 -7z m111 -117 c38 -38 38 -74 0 -112 -57 -56
-141 -23 -141 56 0 79 84 112 141 56z"/>
<path d="M3335 741 c-3 -6 2 -14 11 -19 14 -8 12 -11 -15 -17 -18 -4 -51 -23
-72 -42 -34 -31 -39 -41 -39 -80 0 -38 5 -50 33 -78 71 -71 202 -72 277 -2 64
61 45 142 -46 187 -28 14 -49 30 -47 36 6 19 -90 33 -102 15z m120 -96 c52
-51 16 -145 -54 -145 -57 0 -101 37 -101 85 0 74 102 114 155 60z"/>
</g>
</svg>
